# xmcd CD database file
#
# Track frame offsets:
#	150
#	16701
#	32464
#	56351
#	78681
#	101579
#	118386
#	138914
#	165101
#	180993
#	196681
#	219804
#
# Disc length: 3217 seconds
#
# Revision: 0
# Processed by: cddbd v1.5.2PL0 Copyright (c) Steve Scherf et al.
# Submitted via: CDex 1.70beta2
#
DISCID=870c8f0c
DTITLE=Trish Kerr - Impossible Divine
DYEAR=1900
DGENRE=Jazz
TTITLE0=Impossible Divine
TTITLE1=Spinning
TTITLE2=Love Makes Us Fools
TTITLE3=Crazy Time
TTITLE4=Devil Knocking On My Backdoor
TTITLE5=Good Girl
TTITLE6=Corner Store
TTITLE7=Cool Water
TTITLE8=No Distance
TTITLE9=Where Are You?
TTITLE10=It's Only
TTITLE11=Chewing On My Liver
EXTD=
EXTT0=
EXTT1=
EXTT2=
EXTT3=
EXTT4=
EXTT5=
EXTT6=
EXTT7=
EXTT8=
EXTT9=
EXTT10=
EXTT11=
PLAYORDER=
